<svg xmlns="http://www.w3.org/2000/svg" viewBox="0 0 512 512" width="512" height="512">
  <rect width="512" height="512" fill="#060f2e" rx="64"/>
  <svg x="36" y="36" width="440" height="440" viewBox="0 0 7803.759556 7801.808424">
    <defs>
    <linearGradient id="goldGrad" x1="0%" y1="0%" x2="100%" y2="100%">
      <stop offset="0%" stop-color="#f5c030"/>
      <stop offset="100%" stop-color="#e07418"/>
    </linearGradient>
  </defs>
  <g transform="translate(-1.222082,7803.009458) scale(0.100000,-0.100000)" fill="url(#goldGrad)" stroke="none">
    <path d="M36230 74914 c-1730 -1714 -3375 -3344 -3655 -3623 -281 -278 -7723
-7654 -16538 -16390 -8815 -8736 -16026 -15888 -16025 -15893 6 -16 39360
-38999 39368 -38996 11 4 38670 38991 38670 38999 0 6 -37368 37710 -38208
38552 l-467 467 -3145 -3116z m625 -11015 c25 -2471 44 -4582 43 -4690 l-3
-195 -5723 -5569 -5722 -5569 12 -12 c7 -7 2337 -2162 5178 -4789 2841 -2627
5165 -4781 5165 -4785 0 -12 -5545 -5570 -5556 -5570 -7 0 -6787 6592 -8593
8354 l-338 331 -5869 5 -5870 5 13613 13491 c7487 7420 13614 13491 13615
13490 1 -1 23 -2025 48 -4497z m10967 -1536 c3286 -3316 5976 -6032 5978
-6037 4 -11 -4349 -4378 -4360 -4374 -4 2 -1695 1615 -3759 3586 l-3751 3583
0 207 c0 114 -20 2189 -45 4612 -52 5091 -46 4450 -41 4450 2 0 2692 -2712
5978 -6027z m-5463 -10967 l3310 -3230 -2619 -2625 c-1440 -1444 -2808 -2815
-3039 -3046 l-421 -420 -57 56 c-32 31 -1514 1417 -3293 3079 -1779 1663
-3271 3057 -3314 3098 l-79 75 9 13 c21 29 6180 6233 6186 6231 4 -1 1496
-1455 3317 -3231z m20085 -3786 c2793 -2819 5246 -5293 5450 -5497 l371 -373
-4070 1 -4070 0 -3489 3334 c-1919 1833 -3503 3347 -3519 3364 l-30 30 2128
2136 2129 2136 10 -3 c6 -2 2297 -2309 5090 -5128z m-8771 -7254 l4148 -4046
42 0 c38 0 3939 90 8797 204 1026 24 1866 43 1867 42 2 -2 -6004 -6060 -13345
-13464 l-13347 -13461 -3 37 c-1 20 -25 2044 -52 4497 l-51 4459 28 27 c16 14
2601 2421 5746 5348 3144 2927 5717 5325 5717 5329 0 5 -2237 2099 -4970 4655
-2734 2555 -4972 4648 -4973 4651 -1 2 1348 1357 2997 3011 l2999 3006 126
-124 c69 -69 1993 -1945 4274 -4171z m-43023 -3956 c327 -5 1050 -17 1605 -25
1998 -30 3658 -55 4665 -70 564 -9 1255 -19 1537 -24 l512 -8 53 -49 c30 -27
1724 -1673 3766 -3658 l3712 -3608 -2281 -2289 c-1255 -1259 -2285 -2289
-2288 -2289 -6 0 -11002 10888 -11781 11666 l-365 364 135 0 c74 0 403 -5 730
-10z m32038 -4469 c1602 -1481 2912 -2697 2912 -2702 0 -4 -1396 -1226 -3101
-2715 l-3101 -2706 -57 55 c-31 30 -1275 1242 -2766 2692 -1490 1450 -2710
2640 -2710 2645 0 4 1271 1282 2823 2839 l2824 2831 132 -123 c72 -67 1442
-1334 3044 -2816z m-9326 -9642 c1784 -1733 3263 -3171 3288 -3195 l45 -44 52
-4592 c29 -2526 51 -4642 50 -4702 l-2 -108 -5640 5587 c-3102 3073 -5640
5591 -5640 5596 0 12 4584 4609 4596 4609 4 0 1468 -1418 3251 -3151z"/>
  </g>
  </svg>
</svg>